<svg xmlns="http://www.w3.org/2000/svg" width="148" height="37" fill="none"><g fill="#fff" clip-path="url(#a)"><g clip-path="url(#b)"><path d="M10.082 2.693a.62.62 0 0 1 .265-.834 14.969 14.969 0 0 1 14.225.354.616.616 0 0 1 .225.848l-7.12 12.22a.617.617 0 0 1-.535.308h-.016a.62.62 0 0 1-.535-.334L10.082 2.693Zm6.678 16.155L10.25 6.284a.62.62 0 0 0-.833-.266 14.806 14.806 0 1 0 13.62 26.294.62.62 0 0 0 .264-.834L16.76 18.85Zm7.63 11.874.05.099a.63.63 0 0 0 .358.31c.064.02.132.03.199.024a.787.787 0 0 0 .285-.062c.225-.111.444-.235.656-.371.63-.366 1.23-.78 1.796-1.239h-3.988l.644 1.239Zm-1.288-2.477h5.982c.385-.387.74-.8 1.065-1.239h-7.692l.645 1.239Zm-1.276-2.478h9.203c.253-.397.481-.811.681-1.238H21.182l.644 1.238Zm-1.288-2.477h11.717c.164-.404.305-.818.421-1.239H19.893l.645 1.239Zm-1.289-2.477h13.737c.074-.409.136-.818.173-1.239H18.618l.631 1.239Zm6.64-15.657a.575.575 0 0 0-.471-.062.594.594 0 0 0-.384.285l-.335.57h2.39c-.385-.285-.786-.55-1.2-.793Zm2.7 2.032H23.98l-.719 1.238h6.503c-.366-.436-.76-.85-1.176-1.238Zm2.105 2.477h-8.162l-.719 1.239h9.637c-.224-.43-.476-.844-.756-1.239Zm1.35 2.477h-10.95l-.718 1.239h12.152a11.639 11.639 0 0 0-.483-1.239Zm.83 2.478H19.646l-.719 1.238h14.17c-.049-.417-.123-.83-.223-1.239Zm.347 2.477H18.21l-.297.508a.597.597 0 0 0-.013.594l.075.136h15.272c.012-.123.012-.26.012-.384 0-.284-.012-.57-.037-.854Z"/><path d="M9.798 5.407a.844.844 0 0 0-1.178-.346A15.708 15.708 0 0 0 23.26 32.8a.844.844 0 0 0 .378-1.168l-6.92-13.113-6.92-13.113Z"/></g><path d="M55.359 6.487c1.721 0 3.187.276 4.399.829 1.211.552 2.136 1.35 2.773 2.39.638 1.042.957 2.306.957 3.794s-.32 2.752-.957 3.794c-.637 1.041-1.562 1.838-2.773 2.39-1.212.553-2.678.83-4.4.83h-4.176v7.013H45.7V6.487h9.66Zm-.861 9.914c1.148 0 2.008-.234 2.582-.701.595-.489.893-1.222.893-2.2 0-.977-.298-1.7-.893-2.168-.574-.488-1.434-.733-2.582-.733h-3.316v5.802h3.316ZM66.61 27.527v-15.94h4.782l.223 3.443c.403-1.19.999-2.114 1.785-2.773.808-.659 1.828-.988 3.06-.988.404 0 .744.032 1.02.095.298.064.532.15.702.255l-.542 4.463a3.42 3.42 0 0 0-.829-.19 6.146 6.146 0 0 0-1.18-.096c-.637 0-1.232.138-1.785.414-.552.276-.999.69-1.339 1.243-.319.532-.478 1.212-.478 2.04v8.034h-5.42Zm21.29.319c-1.765 0-3.295-.33-4.591-.989a7.07 7.07 0 0 1-2.965-2.837c-.701-1.232-1.052-2.72-1.052-4.463 0-1.742.35-3.23 1.052-4.463a7.117 7.117 0 0 1 2.933-2.837c1.275-.659 2.73-.988 4.367-.988 1.68 0 3.103.33 4.272.988 1.19.638 2.093 1.53 2.71 2.678.616 1.126.924 2.423.924 3.889 0 .382-.01.765-.032 1.148a9.01 9.01 0 0 1-.095.956H82.8v-2.901h10.233l-2.582.988c0-1.275-.234-2.253-.702-2.933-.446-.68-1.147-1.02-2.104-1.02-.68 0-1.264.16-1.753.479-.468.318-.829.818-1.084 1.498-.234.68-.35 1.551-.35 2.614 0 1.041.138 1.891.414 2.55.276.638.67 1.105 1.18 1.403.51.276 1.126.414 1.848.414.808 0 1.445-.16 1.913-.478.489-.319.85-.765 1.084-1.339l4.335 1.435a5.09 5.09 0 0 1-1.562 2.327c-.722.616-1.594 1.084-2.614 1.402-.999.32-2.05.479-3.156.479Zm17.376 0c-1.593 0-3.081-.255-4.463-.765-1.36-.532-2.486-1.286-3.379-2.264l2.55-2.996c.532.68 1.233 1.253 2.105 1.721.892.446 1.88.67 2.964.67.659 0 1.201-.096 1.626-.287.425-.192.638-.49.638-.893 0-.298-.107-.531-.319-.701-.213-.192-.638-.351-1.275-.479l-2.232-.446c-1.997-.404-3.421-.999-4.272-1.785-.828-.808-1.243-1.86-1.243-3.156 0-.871.266-1.7.797-2.487.531-.807 1.35-1.455 2.455-1.944 1.105-.51 2.518-.765 4.24-.765 1.615 0 3.039.233 4.272.701 1.232.468 2.21 1.148 2.932 2.04l-2.582 2.933c-.51-.637-1.169-1.137-1.976-1.498-.808-.361-1.616-.542-2.423-.542-.51 0-.946.053-1.307.16-.34.084-.595.212-.765.382a.865.865 0 0 0-.255.637c0 .277.127.521.382.734.277.19.776.36 1.499.51l2.901.573c1.636.298 2.816.84 3.538 1.626.723.787 1.084 1.732 1.084 2.838 0 1.04-.276 1.976-.829 2.805-.552.829-1.381 1.488-2.486 1.976-1.106.468-2.498.702-4.177.702Zm16.966-21.327v15.333c0 .766.181 1.318.542 1.658.383.319.904.478 1.562.478.511 0 .946-.053 1.307-.16a3.354 3.354 0 0 0 1.021-.541l.573 3.347c-.531.383-1.2.68-2.008.893a9.73 9.73 0 0 1-2.486.319c-1.212 0-2.264-.17-3.156-.51-.872-.34-1.552-.882-2.041-1.626-.467-.744-.712-1.732-.733-2.965V8.017l5.419-1.498Zm4.75 5.069v3.857h-12.911v-3.857h12.911Zm10.091-.32c1.679 0 3.145.33 4.399.989a6.829 6.829 0 0 1 2.965 2.837c.722 1.233 1.084 2.72 1.084 4.463 0 1.743-.362 3.241-1.084 4.495a7.076 7.076 0 0 1-2.965 2.837c-1.254.638-2.72.957-4.399.957-1.637 0-3.092-.32-4.368-.957a7.271 7.271 0 0 1-2.996-2.837c-.702-1.254-1.052-2.752-1.052-4.495 0-1.742.35-3.23 1.052-4.463a7.01 7.01 0 0 1 2.996-2.837c1.276-.659 2.731-.988 4.368-.988Zm0 3.858c-.617 0-1.148.149-1.594.446-.446.298-.787.776-1.02 1.435-.234.659-.351 1.509-.351 2.55 0 1.042.117 1.892.351 2.55.233.638.574 1.116 1.02 1.435.446.298.977.446 1.594.446.637 0 1.179-.148 1.626-.446.446-.319.786-.797 1.02-1.434.233-.66.35-1.51.35-2.55 0-1.042-.117-1.892-.35-2.551-.234-.659-.574-1.137-1.02-1.435-.447-.297-.989-.446-1.626-.446Z"/></g><defs><clipPath id="a"><path fill="#fff" d="M.922-4.473h146.513v41.29H.922z"/></clipPath><clipPath id="b"><path fill="#fff" d="M.731-.32h32.745v34.836H.731z"/></clipPath></defs></svg>