<svg xmlns="http://www.w3.org/2000/svg" width="34" height="35" fill="none"><g fill="#fff" clip-path="url(#a)"><path d="M10.082 2.693a.62.62 0 0 1 .265-.834 14.969 14.969 0 0 1 14.225.354.616.616 0 0 1 .225.848l-7.12 12.22a.616.616 0 0 1-.535.308h-.016a.62.62 0 0 1-.535-.334L10.082 2.693Zm6.678 16.155L10.25 6.284a.62.62 0 0 0-.833-.266 14.806 14.806 0 1 0 13.62 26.294.62.62 0 0 0 .264-.834L16.76 18.85Zm7.63 11.874.05.099a.63.63 0 0 0 .358.31c.064.02.132.03.199.024a.787.787 0 0 0 .285-.062c.225-.111.444-.235.656-.371.63-.366 1.23-.78 1.796-1.239h-3.988l.644 1.239Zm-1.288-2.477h5.982c.385-.387.74-.8 1.065-1.239h-7.692l.645 1.239Zm-1.276-2.478h9.203c.253-.397.481-.811.681-1.238H21.182l.644 1.238Zm-1.288-2.477h11.717c.164-.404.305-.818.421-1.239H19.893l.645 1.239Zm-1.289-2.477h13.737c.074-.409.136-.818.173-1.239H18.618l.631 1.239Zm6.64-15.657a.575.575 0 0 0-.471-.062.594.594 0 0 0-.384.285l-.335.57h2.39c-.385-.285-.786-.55-1.2-.793Zm2.7 2.032H23.98l-.719 1.238h6.503c-.366-.436-.76-.85-1.176-1.238Zm2.105 2.477h-8.162l-.719 1.239h9.637c-.224-.43-.476-.844-.756-1.239Zm1.35 2.477h-10.95l-.718 1.239h12.152a11.639 11.639 0 0 0-.483-1.239Zm.83 2.478H19.646l-.719 1.238h14.17c-.049-.417-.123-.83-.223-1.239Zm.347 2.477H18.21l-.297.508a.597.597 0 0 0-.013.594l.075.136h15.272c.012-.123.012-.26.012-.384 0-.284-.012-.57-.037-.854Z"/><path d="M9.798 5.407a.844.844 0 0 0-1.178-.346A15.708 15.708 0 0 0 23.26 32.8a.844.844 0 0 0 .378-1.168l-6.92-13.113-6.92-13.113Z"/></g><defs><clipPath id="a"><path fill="#fff" d="M.731-.32h32.745v34.836H.731z"/></clipPath></defs></svg>