<?xml version="1.0" standalone="no"?>
<!DOCTYPE svg PUBLIC "-//W3C//DTD SVG 20010904//EN"
 "http://www.w3.org/TR/2001/REC-SVG-20010904/DTD/svg10.dtd">
<svg version="1.0" xmlns="http://www.w3.org/2000/svg"
 width="1088.000000pt" height="1088.000000pt" viewBox="0 0 1088.000000 1088.000000"
 preserveAspectRatio="xMidYMid meet">
<metadata>
Created by potrace 1.14, written by Peter Selinger 2001-2017
</metadata>
<g transform="translate(0.000000,1088.000000) scale(0.100000,-0.100000)"
fill="#000000" stroke="none">
<path d="M1408 10712 l-128 -3 0 -2119 0 -2120 38 -1 c279 -4 3719 1 3777 6
171 15 216 23 355 60 52 14 102 27 110 29 8 2 29 10 45 16 17 6 37 13 45 15
51 11 319 138 374 178 6 4 43 28 81 54 174 116 361 287 472 430 12 15 35 46
52 68 17 22 35 45 41 52 6 7 15 24 22 38 6 14 15 25 20 25 4 0 8 4 8 9 0 5 18
38 39 73 39 64 118 224 123 250 2 7 6 15 9 18 11 9 82 230 99 305 4 22 11 50
13 61 45 188 55 566 21 749 -3 17 -7 44 -9 61 -2 17 -11 58 -20 90 -9 33 -18
73 -20 89 -4 28 -14 59 -35 110 -5 11 -15 40 -23 65 -41 126 -214 460 -239
460 -4 0 -8 5 -8 11 0 11 -105 150 -151 200 -13 14 -40 43 -59 65 -31 34 -157
149 -231 209 -49 41 -216 149 -284 185 -38 20 -79 41 -90 47 -21 11 -86 41
-145 66 -84 35 -304 99 -385 111 -22 4 -67 11 -100 16 -33 6 -107 13 -165 16
-106 6 -3414 11 -3652 6z"/>
<path d="M1349 5765 c-3 -2 -19 -5 -37 -7 l-32 -2 0 -2828 c0 -1874 3 -2829
10 -2833 6 -3 10 -3 10 2 0 9 455 7 470 -2 5 -3 10 -3 10 2 0 9 214 8 230 -2
5 -3 10 -3 10 2 0 9 134 8 150 -2 5 -3 10 -3 10 2 0 9 134 8 150 -2 5 -3 10
-3 10 2 0 9 134 8 150 -2 5 -3 10 -3 10 2 0 9 214 8 230 -2 5 -3 10 -3 10 2 0
9 455 7 470 -2 5 -3 10 -3 10 2 0 9 455 7 470 -2 5 -3 10 -3 10 2 0 9 214 8
230 -2 5 -3 10 -3 10 2 0 9 134 8 150 -2 5 -3 10 -3 10 2 0 9 134 8 150 -2 5
-3 10 -3 10 2 0 9 134 8 150 -2 5 -3 10 -3 10 2 0 9 214 8 230 -2 5 -3 10 -3
10 2 0 9 455 7 470 -2 5 -3 10 -3 10 2 0 9 455 7 470 -2 5 -3 10 -3 10 2 0 9
214 8 230 -2 5 -3 10 -3 10 2 0 9 134 8 150 -2 5 -3 10 -3 10 2 0 9 134 8 150
-2 5 -3 10 -3 10 2 0 9 134 8 150 -2 5 -3 10 -3 10 2 0 9 214 8 230 -2 5 -3
10 -3 10 2 0 4 84 9 188 9 176 2 274 7 332 18 14 2 48 7 75 11 28 3 59 8 70
10 20 5 51 11 108 21 16 3 77 19 135 36 59 16 112 31 117 32 6 2 17 6 25 9 8
3 38 13 65 23 28 10 56 22 62 27 7 5 13 7 13 4 0 -13 293 127 389 184 34 22
66 39 70 39 4 0 16 8 27 17 11 10 58 44 104 75 91 61 113 78 230 177 113 97
340 332 340 352 0 4 6 12 13 16 16 10 137 175 168 228 13 22 26 42 29 45 10 9
52 82 116 205 71 137 149 328 188 460 15 50 31 104 36 120 9 30 19 72 25 110
2 11 4 20 5 20 2 0 8 31 14 70 3 17 7 41 10 55 3 14 9 52 12 85 3 33 9 77 14
98 4 20 4 37 -1 37 -5 0 -4 11 1 24 9 26 7 410 -3 508 -8 72 -15 125 -22 161
-3 15 -7 39 -10 55 -3 15 -8 43 -11 62 -3 19 -8 38 -10 41 -2 3 -6 19 -8 35
-10 51 -14 67 -45 169 -26 87 -45 141 -89 255 -5 14 -10 28 -11 32 -7 30 -182
361 -193 366 -5 2 -8 8 -8 14 0 6 -20 39 -45 75 -25 35 -45 68 -45 73 0 4 -3
10 -7 12 -5 2 -32 35 -61 73 -30 39 -72 92 -95 120 -55 64 -271 280 -327 325
-24 19 -48 40 -54 45 -14 13 -98 76 -126 95 -12 8 -28 21 -36 28 -7 6 -17 12
-22 12 -5 0 -17 9 -27 20 -10 11 -22 20 -26 20 -5 0 -32 15 -61 34 -29 18 -83
49 -120 69 -37 20 -75 41 -85 46 -35 19 -188 88 -213 96 -3 1 -16 6 -30 12
-31 14 -122 46 -135 49 -5 1 -30 9 -55 17 -76 26 -191 55 -285 72 -49 10 -99
19 -110 21 -21 4 -74 11 -180 21 -33 3 -97 6 -142 7 -46 0 -83 4 -83 7 0 4
-18 3 -40 -1 -22 -4 -43 -4 -45 0 -3 5 -17 5 -33 1 -15 -4 -42 -4 -60 0 -17 4
-34 3 -37 -1 -2 -4 -23 -4 -45 0 -22 4 -43 4 -45 0 -3 -4 -21 -4 -40 0 -19 4
-35 4 -35 0 0 -4 -18 -4 -40 0 -22 4 -40 4 -40 0 0 -4 -20 -4 -45 0 -25 4 -45
4 -45 1 0 -7 -89 -5 -96 2 -3 3 -18 2 -32 -2 -15 -5 -36 -5 -47 -1 -11 4 -31
4 -45 0 -14 -4 -35 -4 -46 0 -11 5 -26 5 -33 1 -7 -5 -30 -5 -52 -1 -21 4 -39
4 -39 0 0 -4 -20 -4 -45 0 -25 4 -45 4 -45 1 0 -7 -89 -5 -96 2 -3 3 -18 2
-32 -2 -15 -5 -36 -5 -47 -1 -11 4 -31 4 -45 0 -14 -4 -34 -4 -44 0 -11 3 -39
3 -63 0 -24 -4 -46 -4 -48 0 -3 4 -23 4 -45 0 -22 -4 -43 -4 -45 1 -3 4 -18 4
-34 -1 -16 -4 -32 -6 -35 -3 -7 7 -142 6 -155 -1 -5 -4 -12 -2 -15 3 -3 5 -21
5 -41 1 -19 -4 -37 -4 -40 0 -3 4 -21 4 -40 0 -19 -4 -37 -4 -40 0 -3 4 -21 4
-40 0 -19 -4 -37 -4 -40 0 -3 4 -21 4 -40 0 -19 -4 -37 -4 -40 0 -3 4 -21 4
-40 0 -19 -4 -37 -4 -40 0 -3 4 -21 4 -40 0 -19 -4 -37 -4 -40 0 -3 4 -21 4
-40 0 -19 -4 -37 -4 -40 0 -3 4 -21 4 -40 0 -19 -4 -37 -4 -40 0 -3 4 -21 4
-40 0 -19 -4 -37 -4 -40 0 -3 4 -21 4 -40 0 -19 -4 -37 -4 -40 0 -3 4 -21 4
-40 0 -19 -4 -37 -4 -40 0 -3 4 -21 4 -40 0 -19 -4 -37 -4 -40 0 -3 4 -21 4
-40 0 -19 -4 -37 -4 -40 0 -3 4 -21 4 -40 0 -19 -4 -37 -4 -40 0 -3 4 -21 4
-40 0 -19 -4 -37 -4 -40 0 -3 4 -21 4 -40 0 -19 -4 -37 -4 -40 0 -3 4 -21 4
-40 0 -19 -4 -37 -4 -40 0 -3 4 -21 4 -40 0 -19 -4 -37 -4 -40 0 -3 4 -21 4
-40 0 -19 -4 -37 -4 -40 0 -3 4 -21 4 -40 0 -19 -4 -37 -4 -40 0 -3 4 -21 4
-40 0 -19 -4 -37 -4 -40 0 -3 4 -21 4 -40 0 -19 -4 -37 -4 -40 0 -3 4 -21 4
-40 0 -19 -4 -37 -4 -40 0 -3 4 -21 4 -40 0 -19 -4 -37 -4 -40 0 -3 4 -21 4
-40 0 -19 -4 -37 -4 -40 0 -3 4 -21 4 -40 0 -19 -4 -37 -4 -40 0 -3 4 -21 4
-40 0 -19 -4 -37 -4 -40 0 -3 4 -21 4 -40 0 -19 -4 -37 -4 -40 0 -3 4 -21 4
-40 0 -19 -4 -37 -4 -40 0 -3 4 -21 4 -40 0 -19 -4 -37 -4 -40 0 -3 4 -21 4
-40 0 -19 -4 -37 -4 -40 0 -3 4 -21 4 -40 0 -19 -4 -37 -4 -40 0 -3 4 -21 4
-40 0 -19 -4 -37 -4 -40 0 -3 4 -21 4 -40 0 -19 -4 -37 -4 -40 0 -3 4 -21 4
-40 0 -19 -4 -37 -4 -40 0 -3 4 -21 4 -40 0 -19 -4 -37 -4 -40 0 -3 4 -21 4
-40 0 -19 -4 -37 -4 -40 0 -3 4 -21 4 -40 0 -19 -4 -37 -4 -40 0 -3 4 -21 4
-40 0 -19 -4 -37 -4 -40 0 -3 4 -21 4 -40 0 -19 -4 -37 -4 -40 0 -3 4 -21 4
-40 0 -19 -4 -37 -4 -40 0 -3 4 -21 4 -40 0 -19 -4 -37 -4 -40 0 -3 4 -21 4
-40 0 -19 -4 -37 -4 -40 0 -3 4 -21 4 -40 0 -19 -4 -37 -4 -40 0 -3 4 -21 4
-40 0 -19 -4 -37 -4 -40 0 -3 4 -20 4 -39 0 -19 -4 -38 -4 -43 1 -5 5 -12 7
-14 4z"/>
</g>
</svg>
