<svg xmlns="http://www.w3.org/2000/svg" width="146" height="38" fill="none"><path fill="#fff" d="M36.15 30.45V4.34h10.354c1.765 0 3.21.356 4.334 1.069 1.136.701 1.976 1.602 2.52 2.702.556 1.1.834 2.236.834 3.409 0 1.438-.345 2.659-1.034 3.662a4.962 4.962 0 0 1-2.774 2.031v-.906c1.644.374 2.89 1.154 3.736 2.339.858 1.184 1.287 2.532 1.287 4.043 0 1.548-.296 2.901-.889 4.062-.592 1.16-1.474 2.067-2.647 2.72-1.16.653-2.599.979-4.316.979H36.15Zm4.424-4.116h6.438c.761 0 1.444-.151 2.048-.453a3.516 3.516 0 0 0 1.415-1.306c.35-.568.526-1.239.526-2.013 0-.7-.151-1.33-.454-1.885a3.32 3.32 0 0 0-1.323-1.324c-.58-.339-1.276-.508-2.086-.508h-6.564v7.489Zm0-11.569h5.875c.629 0 1.191-.12 1.687-.362a2.799 2.799 0 0 0 1.178-1.07c.29-.472.435-1.052.435-1.74 0-.908-.29-1.663-.87-2.267-.58-.605-1.39-.907-2.43-.907h-5.875v6.346Zm27.103 16.229c-1.958 0-3.668-.441-5.131-1.324-1.463-.882-2.599-2.097-3.409-3.644-.798-1.56-1.197-3.349-1.197-5.368 0-2.055.411-3.856 1.233-5.403.822-1.547 1.965-2.756 3.427-3.627 1.463-.87 3.155-1.305 5.077-1.305 1.97 0 3.688.441 5.15 1.323 1.463.883 2.6 2.104 3.41 3.663.809 1.548 1.214 3.33 1.214 5.35 0 2.03-.411 3.825-1.233 5.385-.81 1.547-1.946 2.762-3.409 3.644-1.463.87-3.173 1.306-5.132 1.306Zm0-4.098c1.741 0 3.035-.58 3.88-1.74.847-1.161 1.27-2.66 1.27-4.498 0-1.898-.429-3.409-1.287-4.533-.859-1.136-2.146-1.704-3.863-1.704-1.172 0-2.14.266-2.9.798-.75.52-1.306 1.25-1.669 2.194-.362.93-.544 2.012-.544 3.245 0 1.898.43 3.415 1.288 4.552.87 1.124 2.145 1.686 3.825 1.686ZM81.81 30.45V3.795h4.37V30.45h-4.37Zm17.653.544c-1.802 0-3.373-.453-4.715-1.36-1.342-.907-2.381-2.14-3.119-3.699-.737-1.56-1.106-3.318-1.106-5.277 0-1.982.369-3.747 1.106-5.294.75-1.56 1.808-2.787 3.174-3.681 1.366-.907 2.973-1.36 4.823-1.36 1.861 0 3.421.453 4.678 1.36 1.269.894 2.23 2.121 2.883 3.68.653 1.56.979 3.325.979 5.295 0 1.947-.326 3.705-.979 5.277-.653 1.56-1.626 2.792-2.919 3.699-1.294.907-2.895 1.36-4.805 1.36Zm.671-3.917c1.172 0 2.115-.266 2.828-.798.726-.544 1.251-1.299 1.578-2.266.338-.967.507-2.085.507-3.355 0-1.28-.169-2.4-.507-3.354-.327-.967-.84-1.717-1.541-2.248-.702-.544-1.608-.816-2.72-.816-1.173 0-2.14.29-2.902.87-.761.568-1.323 1.342-1.686 2.32-.363.968-.544 2.044-.544 3.228 0 1.197.175 2.285.526 3.264.363.967.913 1.735 1.65 2.303.737.568 1.674.852 2.811.852Zm4.913 3.373V16.706h-.543V4.338h4.406V30.45h-3.863Zm17.596.544c-1.958 0-3.669-.441-5.132-1.324-1.462-.882-2.599-2.097-3.409-3.644-.797-1.56-1.196-3.349-1.196-5.368 0-2.055.411-3.856 1.233-5.403.822-1.547 1.964-2.756 3.427-3.627 1.462-.87 3.155-1.305 5.077-1.305 1.97 0 3.687.441 5.15 1.323 1.462.883 2.599 2.104 3.408 3.663.81 1.548 1.215 3.33 1.215 5.35 0 2.03-.411 3.825-1.233 5.385-.81 1.547-1.946 2.762-3.409 3.644-1.462.87-3.173 1.306-5.131 1.306Zm0-4.098c1.741 0 3.034-.58 3.88-1.74.846-1.161 1.27-2.66 1.27-4.498 0-1.898-.43-3.409-1.288-4.533-.858-1.136-2.146-1.704-3.862-1.704-1.173 0-2.14.266-2.901.798-.75.52-1.306 1.25-1.669 2.194-.362.93-.543 2.012-.543 3.245 0 1.898.429 3.415 1.287 4.552.87 1.124 2.146 1.686 3.826 1.686ZM.382 16.45H14.7a8.842 8.842 0 0 1 0 17.684H.382V16.45ZM.382.976h9.48a6.632 6.632 0 0 1 0 13.263H.382V.976Z"/></svg>