<svg width="494" height="232" viewBox="0 0 494 232" fill="none" xmlns="http://www.w3.org/2000/svg">
<g filter="url(#filter0_b_64_845)">
<g clip-path="url(#clip0_64_845)">
<rect x="0.14209" width="493.858" height="231.898" rx="15" fill="white" fill-opacity="0.18"/>
<rect x="82.9223" y="68.1805" width="11.7769" height="54.1739" rx="5.88847" transform="rotate(90 82.9223 68.1805)" fill="#95ABBC"/>
<rect x="367.207" y="68.1091" width="11.9197" height="269.981" rx="5.95985" transform="rotate(90 367.207 68.1091)" fill="#8FB6D5"/>
<path d="M384.909 70.3059C385.685 70.3059 386.3 70.4863 386.754 70.8472C387.208 71.208 387.435 71.7066 387.435 72.343C387.435 72.762 387.305 73.1442 387.045 73.4896C386.785 73.8349 386.37 74.1492 385.8 74.4324C386.49 74.7622 386.981 75.1095 387.272 75.4742C387.563 75.8351 387.709 76.2541 387.709 76.7314C387.709 77.4376 387.462 78.0021 386.97 78.425C386.477 78.8441 385.802 79.0536 384.944 79.0536C384.036 79.0536 383.338 78.8557 382.849 78.46C382.36 78.0603 382.116 77.4958 382.116 76.7663C382.116 75.7924 382.709 75.0338 383.897 74.4906C383.361 74.188 382.977 73.862 382.744 73.5128C382.511 73.1597 382.395 72.7659 382.395 72.3313C382.395 71.7144 382.622 71.2236 383.076 70.8588C383.534 70.4902 384.145 70.3059 384.909 70.3059ZM383.07 76.7896C383.07 77.2552 383.231 77.618 383.553 77.8779C383.879 78.1379 384.335 78.2679 384.921 78.2679C385.499 78.2679 385.949 78.1321 386.271 77.8605C386.593 77.5889 386.754 77.2164 386.754 76.743C386.754 76.3666 386.603 76.033 386.3 75.742C385.998 75.4471 385.47 75.1619 384.717 74.8864C384.139 75.1347 383.72 75.4102 383.46 75.7129C383.2 76.0116 383.07 76.3705 383.07 76.7896ZM384.898 71.0916C384.413 71.0916 384.032 71.208 383.757 71.4409C383.481 71.6737 383.344 71.9841 383.344 72.3721C383.344 72.729 383.458 73.0356 383.687 73.2917C383.916 73.5478 384.339 73.8038 384.956 74.0599C385.511 73.8271 385.903 73.5769 386.132 73.3091C386.364 73.0414 386.481 72.729 386.481 72.3721C386.481 71.9802 386.339 71.6698 386.056 71.4409C385.776 71.208 385.39 71.0916 384.898 71.0916ZM394.553 74.671C394.553 76.1416 394.32 77.2397 393.855 77.9653C393.393 78.6908 392.685 79.0536 391.731 79.0536C390.815 79.0536 390.118 78.6831 389.641 77.942C389.164 77.197 388.925 76.1067 388.925 74.671C388.925 73.1888 389.156 72.0888 389.618 71.371C390.08 70.6532 390.784 70.2943 391.731 70.2943C392.654 70.2943 393.354 70.6687 393.832 71.4176C394.313 72.1664 394.553 73.2509 394.553 74.671ZM389.903 74.671C389.903 75.9088 390.048 76.8109 390.339 77.3774C390.631 77.94 391.094 78.2213 391.731 78.2213C392.375 78.2213 392.84 77.9362 393.127 77.3658C393.418 76.7915 393.564 75.8933 393.564 74.671C393.564 73.4488 393.418 72.5544 393.127 71.9879C392.84 71.4176 392.375 71.1324 391.731 71.1324C391.094 71.1324 390.631 71.4137 390.339 71.9763C390.048 72.535 389.903 73.4333 389.903 74.671ZM396.561 72.9657C396.561 73.6254 396.633 74.1201 396.777 74.4499C396.92 74.7797 397.153 74.9446 397.475 74.9446C398.111 74.9446 398.43 74.285 398.43 72.9657C398.43 71.6543 398.111 70.9985 397.475 70.9985C397.153 70.9985 396.92 71.1615 396.777 71.4874C396.633 71.8133 396.561 72.3061 396.561 72.9657ZM399.227 72.9657C399.227 73.8504 399.077 74.5197 398.779 74.9737C398.484 75.4238 398.049 75.6488 397.475 75.6488C396.932 75.6488 396.509 75.418 396.206 74.9562C395.907 74.4945 395.758 73.831 395.758 72.9657C395.758 72.085 395.902 71.4215 396.189 70.9752C396.48 70.529 396.909 70.3059 397.475 70.3059C398.038 70.3059 398.47 70.5368 398.773 70.9985C399.076 71.4603 399.227 72.116 399.227 72.9657ZM401.683 76.3763C401.683 77.0398 401.755 77.5365 401.898 77.8663C402.042 78.1922 402.277 78.3552 402.603 78.3552C402.928 78.3552 403.169 78.1942 403.324 77.8721C403.479 77.5462 403.557 77.0476 403.557 76.3763C403.557 75.7129 403.479 75.222 403.324 74.9038C403.169 74.5818 402.928 74.4208 402.603 74.4208C402.277 74.4208 402.042 74.5818 401.898 74.9038C401.755 75.222 401.683 75.7129 401.683 76.3763ZM404.354 76.3763C404.354 77.2571 404.205 77.9245 403.906 78.3785C403.611 78.8286 403.177 79.0536 402.603 79.0536C402.052 79.0536 401.627 78.8228 401.328 78.361C401.033 77.8993 400.886 77.2377 400.886 76.3763C400.886 75.4956 401.029 74.8321 401.316 74.3859C401.607 73.9396 402.036 73.7165 402.603 73.7165C403.154 73.7165 403.582 73.9455 403.889 74.4033C404.199 74.8573 404.354 75.515 404.354 76.3763ZM402.853 70.4281L398.133 78.9372H397.277L401.997 70.4281H402.853Z" fill="white"/>
<rect x="82.9223" y="107.217" width="11.7769" height="54.1739" rx="5.88847" transform="rotate(90 82.9223 107.217)" fill="#95ABBC"/>
<rect x="177.088" y="107.444" width="11.3237" height="79.8619" rx="5.66185" transform="rotate(90 177.088 107.444)" fill="#0DBBFC"/>
<path d="M197.246 110.765C197.246 111.308 197.093 111.753 196.787 112.098C196.484 112.443 196.053 112.674 195.495 112.791V112.837C196.178 112.923 196.684 113.14 197.014 113.489C197.343 113.838 197.508 114.296 197.508 114.863C197.508 115.674 197.227 116.298 196.664 116.737C196.102 117.171 195.303 117.389 194.267 117.389C193.816 117.389 193.403 117.354 193.027 117.284C192.654 117.218 192.292 117.099 191.939 116.929V116.009C192.307 116.192 192.699 116.331 193.114 116.428C193.533 116.521 193.929 116.568 194.301 116.568C195.772 116.568 196.507 115.992 196.507 114.839C196.507 113.807 195.696 113.291 194.075 113.291H193.236V112.459H194.086C194.75 112.459 195.275 112.313 195.663 112.022C196.051 111.727 196.245 111.32 196.245 110.8C196.245 110.385 196.102 110.059 195.815 109.822C195.531 109.586 195.145 109.467 194.657 109.467C194.284 109.467 193.933 109.518 193.603 109.619C193.273 109.72 192.897 109.906 192.474 110.177L191.985 109.526C192.334 109.25 192.736 109.035 193.19 108.879C193.648 108.72 194.129 108.641 194.633 108.641C195.46 108.641 196.102 108.831 196.56 109.211C197.018 109.588 197.246 110.106 197.246 110.765ZM204.434 113.006C204.434 114.477 204.202 115.575 203.736 116.3C203.274 117.026 202.566 117.389 201.612 117.389C200.696 117.389 199.999 117.018 199.522 116.277C199.045 115.532 198.806 114.442 198.806 113.006C198.806 111.524 199.037 110.424 199.499 109.706C199.961 108.988 200.665 108.629 201.612 108.629C202.535 108.629 203.235 109.004 203.713 109.753C204.194 110.501 204.434 111.586 204.434 113.006ZM199.784 113.006C199.784 114.244 199.93 115.146 200.221 115.712C200.512 116.275 200.975 116.556 201.612 116.556C202.256 116.556 202.721 116.271 203.008 115.701C203.299 115.126 203.445 114.228 203.445 113.006C203.445 111.784 203.299 110.889 203.008 110.323C202.721 109.753 202.256 109.467 201.612 109.467C200.975 109.467 200.512 109.749 200.221 110.311C199.93 110.87 199.784 111.768 199.784 113.006ZM206.442 111.301C206.442 111.96 206.514 112.455 206.658 112.785C206.801 113.115 207.034 113.28 207.356 113.28C207.992 113.28 208.311 112.62 208.311 111.301C208.311 109.989 207.992 109.333 207.356 109.333C207.034 109.333 206.801 109.496 206.658 109.822C206.514 110.148 206.442 110.641 206.442 111.301ZM209.108 111.301C209.108 112.185 208.959 112.855 208.66 113.309C208.365 113.759 207.93 113.984 207.356 113.984C206.813 113.984 206.39 113.753 206.087 113.291C205.789 112.829 205.639 112.166 205.639 111.301C205.639 110.42 205.783 109.756 206.07 109.31C206.361 108.864 206.79 108.641 207.356 108.641C207.919 108.641 208.351 108.872 208.654 109.333C208.957 109.795 209.108 110.451 209.108 111.301ZM211.564 114.711C211.564 115.375 211.636 115.871 211.779 116.201C211.923 116.527 212.158 116.69 212.484 116.69C212.81 116.69 213.05 116.529 213.205 116.207C213.361 115.881 213.438 115.383 213.438 114.711C213.438 114.048 213.361 113.557 213.205 113.239C213.05 112.917 212.81 112.756 212.484 112.756C212.158 112.756 211.923 112.917 211.779 113.239C211.636 113.557 211.564 114.048 211.564 114.711ZM214.236 114.711C214.236 115.592 214.086 116.259 213.787 116.713C213.492 117.164 213.058 117.389 212.484 117.389C211.933 117.389 211.508 117.158 211.209 116.696C210.914 116.234 210.767 115.573 210.767 114.711C210.767 113.831 210.91 113.167 211.197 112.721C211.488 112.275 211.917 112.051 212.484 112.051C213.035 112.051 213.463 112.28 213.77 112.738C214.08 113.192 214.236 113.85 214.236 114.711ZM212.734 108.763L208.014 117.272H207.158L211.878 108.763H212.734Z" fill="white"/>
<circle cx="18.9852" cy="18.8431" r="4.71077" fill="#FC5B00"/>
<circle cx="37.8282" cy="18.8431" r="4.71077" fill="#ECAA00"/>
<circle cx="56.6713" cy="18.8431" r="4.71077" fill="#009D10"/>
</g>
</g>
<defs>
<filter id="filter0_b_64_845" x="-68.5686" y="-68.7107" width="631.279" height="369.32" filterUnits="userSpaceOnUse" color-interpolation-filters="sRGB">
<feFlood flood-opacity="0" result="BackgroundImageFix"/>
<feGaussianBlur in="BackgroundImageFix" stdDeviation="34.3553"/>
<feComposite in2="SourceAlpha" operator="in" result="effect1_backgroundBlur_64_845"/>
<feBlend mode="normal" in="SourceGraphic" in2="effect1_backgroundBlur_64_845" result="shape"/>
</filter>
<clipPath id="clip0_64_845">
<rect x="0.14209" width="493.858" height="231.898" rx="15" fill="white"/>
</clipPath>
</defs>
</svg>
